<?xml version="1.0" encoding="UTF-8"?>
<svg width="90px" height="42px" viewBox="0 0 90 42" version="1.1" xmlns="http://www.w3.org/2000/svg" xmlns:xlink="http://www.w3.org/1999/xlink">
    <!-- Generator: Sketch 46.2 (44496) - http://www.bohemiancoding.com/sketch -->
    <title>Logo</title>
    <desc>Created with Sketch.</desc>
    <defs></defs>
    <g id="Page-1" stroke="none" stroke-width="1" fill="none" fill-rule="evenodd">
        <g id="ExConf2017-test" transform="translate(-65.000000, -31.000000)">
            <g id="Logo" transform="translate(65.000000, 31.000000)">
                <path d="M5.87827189,0.197626728 C2.63177419,0.197626728 0,2.82940092 0,6.07589862 C0,9.32239631 2.63177419,11.9542396 5.87827189,11.9542396 C9.12476959,11.9542396 11.7565438,9.32239631 11.7565438,6.07589862 C11.7565438,2.82940092 9.12476959,0.197626728 5.87827189,0.197626728 M5.87827189,4.1164977 C6.95868664,4.1164977 7.83774194,4.99548387 7.83774194,6.07589862 C7.83774194,7.15638249 6.95868664,8.03536866 5.87827189,8.03536866 C4.79785714,8.03536866 3.91880184,7.15638249 3.91880184,6.07589862 C3.91880184,4.99548387 4.79785714,4.1164977 5.87827189,4.1164977 Z M30.994977,7.38760369 L26.4716129,11.6721429 C26.3125576,11.8071429 26.2945161,11.8242166 26.2128802,11.878894 C26.0291475,12.0019355 25.8247465,12.0935945 25.6106682,12.1490323 C25.3609217,12.2137327 25.0988018,12.2286636 24.8432488,12.1928571 C24.6242627,12.1621659 24.4108065,12.0943548 24.2142857,11.9930184 C24.0176959,11.8917512 23.8385945,11.7571659 23.6865207,11.596659 C23.5090783,11.4093318 23.3692396,11.1871659 23.2769585,10.9461982 C23.2110829,10.7741475 23.1695392,10.5929032 23.1539171,10.4093088 C23.1382258,10.2257834 23.1484562,10.0401152 23.1842627,9.85935484 C23.2415668,9.57 23.36447,9.29460829 23.5416359,9.05875576 C23.5858756,8.99986175 23.6334332,8.94345622 23.6839631,8.88981567 C23.7008295,8.87198157 26.7655991,5.96758065 32.8782719,0.176612903 C35.980023,3.01665899 39.0817051,5.85670507 42.1834562,8.69675115 C42.2539631,8.76504608 42.2731797,8.78080645 42.3377419,8.85483871 C42.4831106,9.0214977 42.6,9.21262673 42.6821198,9.41792627 C42.7779954,9.6574424 42.826106,9.915553 42.8229954,10.1735945 C42.8202995,10.3946544 42.7800691,10.615023 42.7045853,10.8228111 C42.6163825,11.0653687 42.4802765,11.2898157 42.3060138,11.4801152 C42.1317512,11.6704839 41.9200922,11.8257373 41.6863134,11.9348848 C41.5193779,12.0128571 41.3415207,12.0671198 41.1595853,12.0958065 C40.9775806,12.1244931 40.7916359,12.1274654 40.6088018,12.1045853 C40.316129,12.0680184 40.0327189,11.965023 39.7848387,11.8050691 C39.7229032,11.7650461 39.663318,11.7217051 39.6062212,11.6750461 C39.5871889,11.6595161 38.0301382,10.2352074 34.9350691,7.40211982 L34.9332028,25.9017512 C34.9232488,25.9645853 34.9224885,26.0274194 34.9212442,26.0901843 C34.917788,26.2743318 34.9110829,26.4584101 34.9011982,26.6423502 C34.870023,27.2198848 34.8072581,27.7956912 34.7126959,28.3663134 C34.6092166,28.9909908 34.4676498,29.6093779 34.2890323,30.2168433 C34.0949309,30.8767051 33.8570737,31.5237097 33.5775346,32.1521889 C33.2434562,32.9031567 32.85,33.6276498 32.402212,34.3168894 C31.9235945,35.0537281 31.3829724,35.7502327 30.7880876,36.3968917 C30.1729493,37.0656221 29.4999539,37.6810092 28.7788479,38.2338733 C28.0540783,38.7895507 27.2808525,39.2819516 26.470576,39.7032097 C25.7927419,40.0555991 25.0890553,40.3581982 24.3669124,40.6075507 C23.6641935,40.8502051 22.9440553,41.0423986 22.213894,41.1822926 C21.2207143,41.3725922 20.2092166,41.4658963 19.1979954,41.4626336 C18.4990783,41.4603802 17.8003687,41.4121728 17.1078802,41.3175138 C16.3341014,41.2117465 15.568341,41.0479147 14.8191014,40.8275806 C14.0221659,40.5931935 13.2440323,40.2948387 12.4945853,39.9365184 C11.6267281,39.5215922 10.7974424,39.0263088 10.0202765,38.4594954 C9.28589862,37.9239194 8.59817972,37.3245415 7.96707373,36.6704862 C7.26995392,35.9480461 6.64207604,35.158818 6.09516359,34.3168894 C5.58671889,33.5342627 5.14831797,32.7061521 4.78736406,31.8454147 C4.52702074,31.2246083 4.30697696,30.5869355 4.12909908,29.9376498 C3.97002304,29.3570046 3.84471429,28.7671659 3.75377419,28.1720737 C3.67378341,27.6486636 3.62041935,27.1211751 3.59360599,26.5923041 C3.58273272,26.3778802 3.57647005,26.163318 3.57421659,25.9486175 C3.56903226,25.903341 3.5654447,25.8578571 3.56344009,25.8123041 C3.56260138,25.7932258 3.561,23.0725576 3.55863594,17.6502995 C3.56028111,17.5739862 3.5594447,17.5547696 3.56608065,17.4785945 C3.57852304,17.3359217 3.60659447,17.1945622 3.64963134,17.0579032 C3.73578802,16.7843779 3.88212442,16.5306912 4.07580415,16.3192396 C4.17256452,16.2135484 4.28087558,16.1185023 4.39821429,16.0363134 C4.53903456,15.9376728 4.69276728,15.8575576 4.85431797,15.7986636 C5.01587558,15.7398387 5.18509908,15.702235 5.35638249,15.687235 C5.43251613,15.68053 5.45171889,15.6813594 5.52808065,15.6797005 C5.69022581,15.6864747 5.7094424,15.6864747 5.7852235,15.6964286 C5.92728111,15.7150922 6.06725806,15.7493088 6.20191244,15.7982488 C6.47142166,15.8962673 6.7184447,16.0535253 6.92129032,16.2562673 C7.12410138,16.4590092 7.28156682,16.7059217 7.3797235,16.9753687 C7.43854839,17.1369124 7.47615207,17.306129 7.49115207,17.4774194 C7.49785714,17.5535945 7.49702765,17.5727419 7.49875576,17.6491244 L7.50165899,25.7251382 C7.49834101,25.8447235 7.49599078,25.878318 7.49281106,25.9118433 C7.49841014,26.2170968 7.50698157,26.4182488 7.52101382,26.6191244 C7.54859447,27.0142396 7.5959447,27.4079032 7.66313364,27.7982488 C7.82474654,28.7369585 8.10158986,29.6553456 8.48605991,30.5268664 C8.78239631,31.1986175 9.14218894,31.8421659 9.55866359,32.4468664 C9.96608295,33.0383641 10.4276267,33.5925346 10.935553,34.1003917 C11.4100922,34.5749309 11.925,35.0090668 12.4730876,35.3963571 C13.0723272,35.8197857 13.711106,36.1871406 14.3787788,36.4914608 C14.9565207,36.7547903 15.5557604,36.9709424 16.1686866,37.136765 C16.6992857,37.2803295 17.2400461,37.3863111 17.785576,37.453894 C18.2834101,37.5155599 18.7851152,37.5454078 19.2867512,37.5437765 C20.1308295,37.5410461 20.9744931,37.4491106 21.7988018,37.2669401 C22.3285023,37.1498779 22.8500461,36.9958065 23.358318,36.8061359 C23.9154608,36.5982304 24.4566359,36.3476267 24.9756912,36.0574562 C25.501106,35.7637327 26.0038479,35.4295161 26.4782488,35.0589954 C27.0069124,34.6461083 27.5003226,34.1881797 27.9514977,33.6917281 C28.3793779,33.2209217 28.7693088,32.7156221 29.1158986,32.1820507 C29.4514977,31.6654147 29.7465207,31.1224424 29.9968894,30.5594931 C30.2060599,30.0891705 30.3841244,29.605023 30.5293548,29.1111982 C30.6734793,28.6210369 30.7853226,28.1214055 30.8640553,27.6165899 C30.9273041,27.2115899 30.9691935,26.8032719 30.9899309,26.3939171 C30.9982258,26.2298157 31.0029263,26.0656452 31.0045853,25.9013364 L30.994977,7.38760369 Z" id="Combined-Shape" fill="#76FFA9"></path>
                <path d="M80.2043779,29.5755069 C83.4504608,29.5755069 86.0827189,32.2072811 86.0827189,35.4537788 C86.0827189,38.7002765 83.4504608,41.3321198 80.2043779,41.3321198 C76.9576037,41.3321198 74.3260369,38.7002765 74.3260369,35.4537788 C74.3260369,32.2072811 76.9576037,29.5755069 80.2043779,29.5755069 M80.2043779,33.4943779 C81.2847926,33.4943779 82.1633641,34.3733641 82.1633641,35.4537788 C82.1633641,36.5342627 81.2847926,37.4132488 80.2043779,37.4132488 C79.1239631,37.4132488 78.2447005,36.5342627 78.2447005,35.4537788 C78.2447005,34.3733641 79.1239631,33.4943779 80.2043779,33.4943779 Z M78.2702765,7.24562212 L73.5870968,11.5336175 C73.4260369,11.6658525 73.4080645,11.6826498 73.3251152,11.7359447 C73.1391705,11.8558065 72.9331797,11.9440092 72.7182028,11.9958525 C72.4679724,12.0562673 72.2052995,12.0668433 71.9502304,12.026682 C71.7684332,11.9979954 71.5907834,11.9436636 71.4235023,11.8657604 C71.1898618,11.7566129 70.978341,11.6012903 70.8041475,11.4109908 C70.6548387,11.2479263 70.5331797,11.0597005 70.4460829,10.8564747 C70.3735023,10.6871198 70.3251152,10.5076728 70.3023041,10.3248387 C70.2746544,10.1054378 70.2843318,9.8816129 70.3313364,9.66546083 C70.3935484,9.37714286 70.5207373,9.10389401 70.7018433,8.87101382 C70.7474654,8.81288018 70.7958525,8.75723502 70.8470046,8.70449309 C70.8640553,8.68693548 73.9923963,5.82126728 80.2320276,0.107488479 C83.2707373,2.98582949 86.309447,5.86417051 89.3481567,8.74251152 C89.4767281,8.8743318 89.524424,8.9306682 89.5686636,8.98963134 C89.7456221,9.22548387 89.8686636,9.50087558 89.9260369,9.79023041 C89.9612903,9.97099078 89.971659,10.156659 89.9564516,10.3401843 C89.9343318,10.5973272 89.8610599,10.8494931 89.7428571,11.0786406 C89.6239631,11.307788 89.4601382,11.5128802 89.2631336,11.6791244 C89.1221198,11.7978802 88.9645161,11.896659 88.7958525,11.9717281 C88.5940092,12.0618664 88.3769585,12.1176498 88.1571429,12.1359677 C87.9,12.1574654 87.6387097,12.1278111 87.393318,12.0492166 C87.1824885,11.9818894 86.9834101,11.8788249 86.8071429,11.7457604 C86.728341,11.6865207 86.7117512,11.6685484 86.6384793,11.6030184 L82.2082949,7.40702765 C82.2041475,7.65041475 82.1951613,7.89373272 82.1806452,8.13670507 C82.1516129,8.62078341 82.1032258,9.10375576 82.0347926,9.58389401 C81.8426267,10.9361751 81.4935484,12.2668203 80.9868664,13.5355991 C80.5907834,14.5274654 80.0979263,15.480553 79.5158986,16.376129 C79.0493088,17.0937097 78.5260369,17.7739631 77.9536866,18.4101152 C77.4,19.024977 76.8013825,19.5982258 76.1654378,20.1275806 C75.5529954,20.6374424 74.9073733,21.1064516 74.2354839,21.5350922 C73.6714286,21.8951613 73.0894009,22.2269585 72.4935484,22.5319355 C71.4490783,23.0665438 70.3638249,23.5184101 69.2543779,23.8999078 C68.9104147,24.0182488 68.5640323,24.1297465 68.2157143,24.2349539 C68.1072581,24.2676498 67.9985945,24.2997926 67.8897926,24.3313134 C67.7883871,24.3606912 67.6867742,24.3893779 67.5853687,24.4187558 C67.5317281,24.4343779 67.4781567,24.4501382 67.4245853,24.4660369 C67.2660138,24.513318 67.1079263,24.5619124 66.9502535,24.6120968 C66.6199078,24.7173041 66.2917051,24.8292166 65.966129,24.948318 C64.8801843,25.3454378 63.8221659,25.8221889 62.8155069,26.3919124 C61.9136406,26.9023272 61.0533871,27.4873272 60.2562442,28.1498848 C59.8269124,28.5068433 59.4158986,28.8859217 59.0267972,29.2864286 C58.6641014,29.6596313 58.3204147,30.0512212 57.9978802,30.4596774 C57.4490323,31.1545853 56.9621889,31.8982258 56.5438479,32.6787097 C56.0104839,33.6738249 55.588341,34.7281521 55.2825346,35.814871 C55.1689631,36.2183502 55.0712903,36.6263157 54.9903456,37.0375853 C54.9186636,37.401712 54.859977,37.7684378 54.8157373,38.1369194 C54.7830415,38.4095668 54.7581567,38.6832581 54.7435714,38.9574885 C54.7381797,39.0582166 54.7342396,39.1590346 54.7323041,39.2598871 C54.7309908,39.3991244 54.7310599,39.4247074 54.7317512,39.4502627 C54.7244931,39.5745069 54.7282949,39.6966567 54.7097696,39.8164217 C54.6727189,40.0569816 54.5913594,40.288576 54.4698387,40.4994816 C54.348318,40.710394 54.1887788,40.8969608 53.9993088,41.0497327 C53.8098387,41.2025115 53.5936866,41.3188479 53.3617742,41.3928525 C53.1299309,41.4668641 52.8863364,41.4972581 52.6433641,41.4825069 C52.4003917,41.4677558 52.1623272,41.4081083 51.9410599,41.3065853 C51.7198618,41.2050622 51.5194009,41.0634194 51.3497696,40.8888387 C51.1801382,40.7142581 51.0443779,40.5097604 50.9492627,40.2857005 C50.9019124,40.1741475 50.8647926,40.0577212 50.8387327,39.9393664 C50.8127419,39.8210184 50.8087327,39.6988687 50.7937327,39.5786198 C50.7879263,39.2601774 50.7953917,39.0039816 50.8090092,38.748318 C50.8260829,38.4270138 50.8536636,38.1062765 50.8898157,37.7865691 C50.9386866,37.3550737 51.0032488,36.9253756 51.0821198,36.4983594 C51.1698387,36.0237581 51.2752535,35.5524124 51.3978111,35.0855945 C51.7630645,33.6942857 52.2798387,32.3424194 52.9408756,31.0647235 C53.4680184,30.0458986 54.0868894,29.0749078 54.7886406,28.1675115 C55.3114977,27.4914747 55.8802535,26.851106 56.4885484,26.2508986 C57.0700922,25.6770968 57.6878571,25.1401382 58.3352765,24.6418894 C58.9399078,24.1766129 59.5703226,23.7451382 60.2212673,23.3473272 C60.8117281,22.9864977 61.4189171,22.653318 62.0392396,22.3467512 C63.0408525,21.8518203 64.0763364,21.4264977 65.1328341,21.0635945 C65.4891705,20.941106 65.8479954,20.8257373 66.2087558,20.7171429 C66.3163134,20.6847926 66.4240092,20.6529954 66.5318433,20.6218203 C66.6190783,20.5965899 66.7065207,20.5719124 66.7938249,20.5467512 C66.8479493,20.5309908 66.9020046,20.5151613 66.956129,20.4991244 C67.2716129,20.4052535 67.5855069,20.3059217 67.8971889,20.1999539 C68.1578571,20.1112673 68.4169355,20.0181567 68.6742166,19.9202074 C68.8979724,19.8351152 69.1203456,19.7463594 69.3414747,19.6538018 C70.6465438,19.1068203 71.9004608,18.4256682 73.0361751,17.5786866 C73.1903226,17.463871 73.3423963,17.3460138 73.4917051,17.2251152 C73.7626728,17.005576 74.0260369,16.7759447 74.2797235,16.5364977 C74.5873272,16.2465207 74.881106,15.9419585 75.1589862,15.6234332 C75.5315668,15.1954839 75.8758065,14.7423733 76.1875576,14.2674885 C76.624424,13.5999539 76.9963134,12.8897696 77.2970046,12.1506221 C77.6958525,11.1702995 77.9702765,10.1406221 78.124424,9.09387097 C78.178341,8.72702765 78.2177419,8.35790323 78.2419355,7.98788018 C78.2585253,7.74082949 78.2682028,7.49322581 78.2702765,7.24562212 Z" id="Combined-Shape" fill="#75E9FF"></path>
                <path d="M55.6632949,3.80847926 L59.2349539,0.520576037 C59.2567972,0.501359447 59.2781567,0.481658986 59.3004147,0.462926267 C59.3448618,0.425529954 59.3909677,0.390069124 59.4385945,0.356682028 C59.6528111,0.206543779 59.8968894,0.0998156682 60.1526498,0.0444470046 C60.2378111,0.0260599078 60.3242857,0.0132718894 60.4111751,0.00629032258 C60.4883871,6.9124424e-05 60.5078802,0.00110599078 60.5852995,0 C60.6143318,0.000898617512 60.6434332,0.0017281106 60.6724654,0.00262672811 C60.7014286,0.00476958525 60.7304608,0.00629032258 60.7593548,0.00912442396 C60.817212,0.0147235023 60.8747926,0.0228801843 60.9319585,0.03359447 C61.1318664,0.0710599078 61.3258295,0.139631336 61.5048618,0.236267281 C61.658318,0.319078341 61.8006452,0.42235023 61.9270046,0.542488479 C62.1376959,0.742949309 62.3028341,0.99 62.4074194,1.26138249 C62.5015668,1.50552995 62.5462903,1.76806452 62.5384101,2.02963134 C62.5322581,2.23299539 62.4943779,2.43518433 62.4264977,2.62700461 C62.3489401,2.84619816 62.2323272,3.05129032 62.0836406,3.23004608 C62.0464516,3.27470046 62.0073272,3.31776498 61.9663364,3.35896313 C61.9458065,3.37956221 61.924447,3.39926267 61.9035023,3.41937788 L58.5721198,6.48615207 L61.9035023,9.55285714 C61.924447,9.57297235 61.9458065,9.59267281 61.9662673,9.61327189 C62.0072581,9.65447005 62.0463825,9.69746544 62.0835714,9.74218894 C62.2323272,9.9209447 62.3489401,10.1259677 62.4264977,10.3452304 C62.4846313,10.5096083 62.5208525,10.681659 62.5337788,10.855576 C62.5554839,11.145553 62.5120046,11.4395392 62.4074194,11.7108525 C62.3028341,11.982235 62.1376959,12.2292857 61.9270046,12.4296774 C61.7795622,12.5699309 61.6104147,12.6870276 61.427235,12.7756452 C61.2179263,12.8769124 60.9907834,12.9406452 60.7593548,12.9631106 C60.498894,12.988341 60.2339401,12.961106 59.9840553,12.8834101 C59.7898157,12.8229954 59.6051152,12.7323041 59.4385253,12.615553 C59.3909677,12.5821659 59.3448618,12.5467051 59.3004147,12.5093088 C59.2781567,12.490576 59.2567972,12.4708756 59.2349539,12.451659 L55.6632949,9.16382488 L52.0916359,12.451659 C52.0698618,12.4708756 52.0484332,12.490576 52.0262442,12.5093088 C51.9817281,12.5467051 51.9356912,12.5821659 51.8880645,12.615553 C51.7214747,12.7323041 51.5367742,12.8229954 51.3425346,12.8834101 C51.0926498,12.961106 50.8276959,12.988341 50.567235,12.9631106 C50.3358065,12.9406452 50.1086636,12.8769124 49.8993548,12.7756452 C49.7161751,12.6870276 49.5470276,12.5699309 49.3996544,12.4296774 C49.2732949,12.3095392 49.1630415,12.1725346 49.0726959,12.0234332 C48.9219355,11.7747235 48.8274424,11.4930415 48.7976498,11.2037558 C48.7679263,10.91447 48.8031106,10.619447 48.9000922,10.3452304 C48.9776498,10.1259677 49.0942627,9.9209447 49.2430184,9.74218894 C49.2802074,9.69746544 49.3193318,9.65447005 49.3603226,9.61327189 C49.3807834,9.59267281 49.402212,9.57297235 49.4230876,9.55285714 L52.7545392,6.48615207 L49.4230876,3.41937788 C49.4021429,3.39926267 49.3807834,3.37956221 49.3603226,3.35896313 C49.3193318,3.31776498 49.2802074,3.27470046 49.2430184,3.23004608 C49.1128571,3.07368664 49.007235,2.89714286 48.9309908,2.7085023 C48.8219816,2.43891705 48.7737327,2.14569124 48.7906682,1.85536866 C48.8076037,1.56504608 48.8895161,1.27942396 49.0291475,1.02428571 C49.1128571,0.871313364 49.2168894,0.729608295 49.337788,0.603940092 C49.478871,0.457396313 49.6426959,0.332903226 49.8217281,0.236267281 C50.0264055,0.125875576 50.2504378,0.0521198157 50.4806912,0.0194239631 C50.5382719,0.0112672811 50.596129,0.00566820276 50.6541935,0.00262672811 C50.6831567,0.00110599078 50.7122581,0.000898617512 50.7412903,0 C50.7703226,0.000414746544 50.799424,0.000829493088 50.8284562,0.00117511521 C50.8574194,0.00290322581 50.8865207,0.00394009217 50.9154839,0.00629032258 C50.9734101,0.010921659 51.031129,0.0181797235 51.0883641,0.0279262673 C51.3463364,0.0718894009 51.5948387,0.167695853 51.815553,0.308294931 C51.8891014,0.355092166 51.9595392,0.406797235 52.0261751,0.462926267 C52.0484332,0.481658986 52.0697926,0.501359447 52.0916359,0.520576037 L55.6632949,3.80847926 Z" id="Fill-5" fill="#FF61A6"></path>
            </g>
        </g>
    </g>
</svg>